<svg version="1.0" xmlns="http://www.w3.org/2000/svg" width="346.667" height="346.667" viewBox="0 0 260 260"><path d="M0 130v130h260V0H0v130zm115.4-18.8c10.4 48.4 11.7 53.8 12.5 53.8.4 0 5.4-20.3 11.1-45l10.3-45h10.9c10.1 0 10.8.1 10.8 2 0 1.5-.7 2-2.9 2-6.2 0-6.1-.7-6.1 53.5 0 26.9.3 50 .6 51.3.6 2.1 4.4 3.9 7.2 3.4.7-.2 1.2.8 1.2 2.3v2.5h-14.5c-13.3 0-14.5-.1-14.5-1.8 0-1.3 1.2-2.1 4.3-2.8l4.2-.9.2-47c.1-27.8-.2-46.2-.7-45-.5 1.1-5.5 21.8-11.1 46s-10.5 45.7-11.1 47.7c-.6 2.7-1.4 3.8-2.7 3.8-1.4 0-2.2-1.2-3-4.8-.5-2.6-5.1-23.6-10.1-46.7s-9.4-42.9-10-44c-.5-1.2-.9 15-.9 43.1-.1 49-.3 47.4 5.4 47.8 1.9.1 2.5.7 2.5 2.3 0 2.2-.3 2.3-10.5 2.3-9.6 0-10.5-.2-10.5-1.9 0-1.4 1-2.1 3.5-2.5 2.6-.5 3.9-1.4 4.5-3.2.6-1.5 1-22.9 1-51.7 0-54.4.1-53.7-6.1-53.7-2.2 0-2.9-.5-2.9-2 0-1.9.7-2 9.8-2h9.8l7.8 36.2z"/></svg>